<svg width="400" height="400" viewBox="0 0 400 400" fill="none" xmlns="http://www.w3.org/2000/svg">
<path fill-rule="evenodd" clip-rule="evenodd" d="M138.055 57.7115C120.666 71.0973 107.805 90.075 102.162 111.953C103.153 113.019 104.344 114.307 105.703 115.787C109.884 120.342 115.655 126.722 122.023 134.031C132.172 145.681 144.073 159.96 153.432 173.042C155.572 172.085 157.713 171.081 159.842 170.028C139.342 134.875 135.056 101.212 136.261 75.5626C136.566 69.0629 137.222 63.0783 138.055 57.7115ZM170.316 186.029C168.161 187.128 165.996 188.178 163.832 189.182C171.589 203.249 175.708 217.235 177.909 228.117C178.407 230.579 178.81 232.893 179.134 235.027C185.555 236.321 192.198 237 199 237C208.152 237 217.017 235.771 225.439 233.468C224.626 233.014 223.803 232.547 222.97 232.067C206.611 222.626 186.466 207.836 170.316 186.029ZM248.612 223.845C244.097 221.837 238.554 219.123 232.467 215.611C218.13 207.337 201.069 194.8 187.211 176.869C188.784 175.972 190.338 175.072 191.873 174.171C215.624 195.34 244.255 198.833 266.599 197.118C271.406 196.749 275.967 196.138 280.187 195.397C271.835 206.987 261.064 216.716 248.612 223.845ZM176.6 161.045C157.958 129.368 154.169 99.2611 155.24 76.4536C155.828 63.9233 157.887 53.5932 159.778 46.4496C159.929 45.8768 160.08 45.3248 160.228 44.7941C172.151 39.7745 185.252 37 199 37C201.674 37 204.324 37.105 206.946 37.3111C201.27 47.6821 194.19 61.6314 188.106 76.7054C181.836 92.239 176.411 109.485 174.912 125.484C173.827 137.068 174.719 149.042 179.77 159.232C178.723 159.838 177.666 160.442 176.6 161.045ZM107.697 146.512C116.765 156.921 126.861 169.02 135.15 180.212C129.649 182.1 124.425 183.673 119.733 184.962C117.057 185.697 114.567 186.336 112.312 186.886C103.845 172.203 99 155.167 99 137C99 136.892 99.0002 136.784 99.0005 136.676C101.68 139.663 104.618 142.978 107.697 146.512ZM124.767 203.283C124.593 203.331 124.42 203.378 124.248 203.425C133.696 214.05 145.375 222.647 158.55 228.481C156.363 219.009 152.594 207.637 146.132 196.478C138.383 199.31 131.072 201.551 124.767 203.283ZM274.136 109.478C259.274 125.419 238.059 144.584 208.929 163.609C226.606 176.978 247.279 179.545 265.144 178.174C275.475 177.381 284.59 175.277 291.129 173.361C291.537 173.242 291.935 173.123 292.322 173.006C296.635 161.834 299 149.693 299 137C299 121.057 295.269 105.985 288.632 92.6097C284.695 97.6143 279.894 103.303 274.136 109.478ZM260.239 96.5216C267.877 88.3301 273.651 81.1233 277.818 75.4479C265.01 59.0704 247.208 46.7868 226.704 40.8872C225.917 42.2726 225.083 43.7609 224.212 45.3418C218.661 55.4122 211.657 69.1184 205.725 83.8165C199.752 98.6148 195.08 113.902 193.829 127.256C192.978 136.336 193.774 143.66 196.115 149.272C225.154 130.611 245.963 111.834 260.239 96.5216Z" fill="white"/>
<path d="M71.7448 331H46.7848V289H52.4848V325.9H71.7448V331ZM82.2293 331H76.8293V299.8H82.2293V331ZM79.5293 294.46C78.4893 294.46 77.5893 294.1 76.8293 293.38C76.1093 292.62 75.7493 291.72 75.7493 290.68C75.7493 289.52 76.0893 288.6 76.7693 287.92C77.4493 287.24 78.3693 286.9 79.5293 286.9C80.5693 286.9 81.4493 287.28 82.1693 288.04C82.9293 288.76 83.3093 289.64 83.3093 290.68C83.3093 291.84 82.9693 292.76 82.2893 293.44C81.6093 294.12 80.6893 294.46 79.5293 294.46ZM87.6293 301.24L92.5493 299.2L103.169 324.88L113.789 299.2L118.409 301.24L105.809 331H100.169L87.6293 301.24ZM126.07 317.62C126.43 320.54 127.45 322.82 129.13 324.46C130.81 326.1 133.03 326.92 135.79 326.92C137.59 326.92 139.21 326.74 140.65 326.38C142.09 325.98 143.47 325.48 144.79 324.88L146.05 329.5C144.61 330.18 142.99 330.72 141.19 331.12C139.39 331.52 137.37 331.72 135.13 331.72C132.89 331.72 130.87 331.36 129.07 330.64C127.27 329.88 125.73 328.82 124.45 327.46C123.21 326.06 122.25 324.36 121.57 322.36C120.89 320.32 120.55 318 120.55 315.4C120.55 313.08 120.89 310.92 121.57 308.92C122.25 306.92 123.21 305.2 124.45 303.76C125.69 302.28 127.17 301.14 128.89 300.34C130.61 299.5 132.53 299.08 134.65 299.08C136.89 299.08 138.85 299.46 140.53 300.22C142.21 300.98 143.61 302.02 144.73 303.34C145.85 304.66 146.69 306.2 147.25 307.96C147.81 309.72 148.09 311.58 148.09 313.54C148.09 314.94 148.03 316.3 147.91 317.62H126.07ZM134.53 303.76C132.17 303.76 130.23 304.56 128.71 306.16C127.23 307.76 126.33 310.12 126.01 313.24H143.11C143.11 310.2 142.35 307.86 140.83 306.22C139.31 304.58 137.21 303.76 134.53 303.76ZM173.875 289.12C175.275 288.96 176.995 288.82 179.035 288.7C181.115 288.58 183.515 288.52 186.235 288.52C191.395 288.52 195.335 289.48 198.055 291.4C200.815 293.32 202.195 295.96 202.195 299.32C202.195 301.56 201.615 303.44 200.455 304.96C199.295 306.48 197.575 307.74 195.295 308.74C198.015 309.7 200.075 311.02 201.475 312.7C202.875 314.38 203.575 316.48 203.575 319C203.575 322.84 202.075 325.88 199.075 328.12C196.115 330.36 191.755 331.48 185.995 331.48C183.555 331.48 181.235 331.42 179.035 331.3C176.875 331.22 175.155 331.08 173.875 330.88V289.12ZM186.415 326.74C190.015 326.74 192.795 326.1 194.755 324.82C196.755 323.54 197.755 321.68 197.755 319.24C197.755 316.84 196.775 314.96 194.815 313.6C192.855 312.24 190.055 311.56 186.415 311.56H179.575V326.38C181.655 326.62 183.935 326.74 186.415 326.74ZM186.175 307.12C189.335 307.12 191.835 306.48 193.675 305.2C195.555 303.88 196.495 302.16 196.495 300.04C196.495 297.76 195.575 296.04 193.735 294.88C191.895 293.72 189.375 293.14 186.175 293.14C184.855 293.14 183.655 293.18 182.575 293.26C181.495 293.3 180.495 293.36 179.575 293.44V307.12H186.175ZM208.968 315.58C208.968 313.26 209.328 311.1 210.048 309.1C210.768 307.06 211.768 305.3 213.048 303.82C214.368 302.34 215.928 301.18 217.728 300.34C219.568 299.5 221.568 299.08 223.728 299.08C225.528 299.08 227.148 299.4 228.588 300.04C230.068 300.64 231.348 301.4 232.428 302.32V299.8H237.348V323.44C237.348 324.96 237.708 325.96 238.428 326.44C239.188 326.88 240.008 327.1 240.888 327.1L239.748 331.3C235.908 331.3 233.588 329.74 232.788 326.62C232.308 327.26 231.748 327.9 231.108 328.54C230.508 329.14 229.808 329.68 229.008 330.16C228.208 330.64 227.308 331.02 226.308 331.3C225.308 331.58 224.208 331.72 223.008 331.72C221.048 331.72 219.208 331.34 217.488 330.58C215.808 329.82 214.328 328.74 213.048 327.34C211.808 325.94 210.808 324.26 210.048 322.3C209.328 320.3 208.968 318.06 208.968 315.58ZM224.208 326.92C225.728 326.92 227.168 326.56 228.528 325.84C229.888 325.12 231.028 324.18 231.948 323.02V306.28C230.868 305.52 229.668 304.92 228.348 304.48C227.068 304 225.708 303.76 224.268 303.76C222.828 303.76 221.508 304.04 220.308 304.6C219.108 305.16 218.068 305.96 217.188 307C216.348 308 215.688 309.22 215.208 310.66C214.728 312.1 214.488 313.68 214.488 315.4C214.488 317.08 214.728 318.64 215.208 320.08C215.688 321.48 216.368 322.7 217.248 323.74C218.128 324.74 219.148 325.52 220.308 326.08C221.508 326.64 222.808 326.92 224.208 326.92ZM247.679 323.98C248.719 324.9 250.019 325.64 251.579 326.2C253.179 326.76 254.879 327.04 256.679 327.04C258.919 327.04 260.599 326.68 261.719 325.96C262.879 325.2 263.459 324.24 263.459 323.08C263.459 322.48 263.339 321.92 263.099 321.4C262.899 320.88 262.499 320.38 261.899 319.9C261.339 319.42 260.559 318.96 259.559 318.52C258.559 318.04 257.259 317.52 255.659 316.96C252.699 315.96 250.499 314.78 249.059 313.42C247.619 312.02 246.899 310.1 246.899 307.66C246.899 306.46 247.159 305.34 247.679 304.3C248.239 303.26 249.019 302.36 250.019 301.6C251.059 300.8 252.299 300.18 253.739 299.74C255.219 299.3 256.899 299.08 258.779 299.08C260.819 299.08 262.599 299.3 264.119 299.74C265.679 300.14 267.079 300.66 268.319 301.3L266.819 305.74C265.739 305.1 264.499 304.58 263.099 304.18C261.739 303.78 260.219 303.58 258.539 303.58C256.459 303.58 254.879 304 253.799 304.84C252.719 305.68 252.179 306.6 252.179 307.6C252.179 308.08 252.259 308.52 252.419 308.92C252.619 309.32 252.959 309.7 253.439 310.06C253.919 310.42 254.559 310.78 255.359 311.14C256.159 311.5 257.159 311.88 258.359 312.28C260.319 312.96 261.979 313.66 263.339 314.38C264.699 315.06 265.799 315.82 266.639 316.66C267.479 317.5 268.079 318.42 268.439 319.42C268.799 320.38 268.979 321.46 268.979 322.66C268.979 324.06 268.679 325.32 268.079 326.44C267.479 327.56 266.639 328.52 265.559 329.32C264.479 330.08 263.159 330.66 261.599 331.06C260.079 331.5 258.379 331.72 256.499 331.72C254.099 331.72 251.959 331.42 250.079 330.82C248.199 330.22 246.639 329.44 245.399 328.48L247.679 323.98ZM276.165 286.6H281.565V311.98L295.665 299.2L298.785 302.62L286.725 313.3L301.425 328L297.705 331.6L281.565 314.98V331H276.165V286.6ZM309.351 317.62C309.711 320.54 310.731 322.82 312.411 324.46C314.091 326.1 316.311 326.92 319.071 326.92C320.871 326.92 322.491 326.74 323.931 326.38C325.371 325.98 326.751 325.48 328.071 324.88L329.331 329.5C327.891 330.18 326.271 330.72 324.471 331.12C322.671 331.52 320.651 331.72 318.411 331.72C316.171 331.72 314.151 331.36 312.351 330.64C310.551 329.88 309.011 328.82 307.731 327.46C306.491 326.06 305.531 324.36 304.851 322.36C304.171 320.32 303.831 318 303.831 315.4C303.831 313.08 304.171 310.92 304.851 308.92C305.531 306.92 306.491 305.2 307.731 303.76C308.971 302.28 310.451 301.14 312.171 300.34C313.891 299.5 315.811 299.08 317.931 299.08C320.171 299.08 322.131 299.46 323.811 300.22C325.491 300.98 326.891 302.02 328.011 303.34C329.131 304.66 329.971 306.2 330.531 307.96C331.091 309.72 331.371 311.58 331.371 313.54C331.371 314.94 331.311 316.3 331.191 317.62H309.351ZM317.811 303.76C315.451 303.76 313.511 304.56 311.991 306.16C310.511 307.76 309.611 310.12 309.291 313.24H326.391C326.391 310.2 325.631 307.86 324.111 306.22C322.591 304.58 320.491 303.76 317.811 303.76ZM341.028 291.1H345.168V300.94H353.808V305.62H345.168V320.68C345.168 321.84 345.288 322.82 345.528 323.62C345.808 324.42 346.168 325.06 346.608 325.54C347.048 326.02 347.568 326.38 348.168 326.62C348.808 326.82 349.468 326.92 350.148 326.92C351.148 326.92 352.088 326.76 352.968 326.44C353.848 326.12 354.688 325.74 355.488 325.3L356.988 329.62C356.188 330.1 355.108 330.56 353.748 331C352.388 331.48 350.968 331.72 349.488 331.72C346.488 331.72 344.108 330.74 342.348 328.78C340.628 326.82 339.768 323.98 339.768 320.26V305.62H334.368V300.94H339.888L341.028 291.1Z" fill="white"/>
</svg>
