<?xml version="1.0" standalone="no"?>
<!DOCTYPE svg PUBLIC "-//W3C//DTD SVG 20010904//EN"
 "http://www.w3.org/TR/2001/REC-SVG-20010904/DTD/svg10.dtd">
<svg version="1.0" xmlns="http://www.w3.org/2000/svg"
 width="700.000000pt" height="700.000000pt" viewBox="0 0 700.000000 700.000000"
 preserveAspectRatio="xMidYMid meet">
<metadata>
Created by potrace 1.11, written by Peter Selinger 2001-2013
</metadata>
<g transform="translate(0.000000,700.000000) scale(0.100000,-0.100000)"
fill="#000000" stroke="none">
<path d="M3298 6345 c-2 -2 -28 -6 -58 -10 -119 -14 -398 -92 -428 -119 -24
-23 -75 -285 -89 -461 -12 -145 -4 -518 11 -545 2 -3 7 -30 10 -60 20 -168 98
-449 171 -615 61 -140 103 -226 144 -297 33 -57 33 -57 58 -41 15 10 22 22 19
32 -3 9 -17 49 -30 89 -117 338 -29 861 248 1485 61 137 191 404 242 496 13
24 24 46 24 48 0 5 -318 2 -322 -2z"/>
<path d="M3940 6238 c-12 -24 -39 -74 -60 -113 -85 -159 -146 -286 -255 -530
-85 -190 -189 -526 -215 -695 -6 -41 -14 -88 -17 -105 -16 -102 2 -324 31
-382 11 -22 12 -22 92 31 125 82 405 284 424 305 3 4 39 33 80 66 195 155 491
441 645 621 50 58 95 111 100 117 6 7 30 38 54 70 l43 57 -46 54 c-164 192
-344 331 -571 441 -109 53 -245 105 -275 105 -4 0 -18 -19 -30 -42z"/>
<path d="M2363 5948 c-87 -72 -241 -240 -311 -338 -41 -58 -103 -163 -137
-235 -60 -123 -131 -314 -123 -334 1 -5 41 -50 88 -101 47 -51 93 -102 103
-114 10 -12 33 -37 51 -56 35 -38 358 -419 416 -490 19 -24 79 -101 132 -172
54 -70 100 -129 104 -129 3 -1 29 8 58 21 l54 22 -45 82 c-41 75 -54 103 -118
241 -62 135 -115 287 -157 450 -29 116 -33 132 -43 185 -3 14 -7 35 -9 48 -46
226 -54 615 -20 892 3 24 8 48 10 52 12 19 -18 5 -53 -24z"/>
<path d="M4954 5263 c-82 -100 -399 -426 -504 -519 -191 -171 -448 -371 -655
-512 -153 -104 -146 -93 -82 -135 75 -50 218 -120 297 -145 115 -37 179 -51
320 -68 54 -7 258 -7 330 0 112 10 173 19 245 36 28 6 59 13 70 16 11 2 48 11
81 20 l62 16 26 82 c69 219 85 332 82 576 -3 213 -20 327 -75 497 -34 108 -90
243 -100 243 -4 0 -48 -48 -97 -107z"/>
<path d="M1735 4510 c3 -52 8 -106 10 -120 3 -14 7 -41 10 -60 2 -19 7 -46 10
-60 2 -14 7 -34 9 -45 23 -112 80 -274 137 -392 28 -57 54 -103 58 -103 8 0
285 80 354 101 20 7 37 15 37 18 0 3 -32 47 -71 96 -38 50 -82 106 -97 125
-61 78 -344 410 -400 470 l-62 65 5 -95z"/>
<path d="M3317 3931 c-15 -10 -30 -20 -33 -23 -9 -10 83 -117 200 -234 213
-213 437 -374 732 -525 l131 -68 58 35 c149 90 369 288 458 412 l38 53 -33 -6
c-204 -35 -465 -38 -673 -9 -270 38 -589 177 -782 340 -28 24 -55 44 -60 43
-4 0 -20 -8 -36 -18z"/>
<path d="M2918 3714 c-27 -13 -48 -27 -48 -30 0 -3 13 -29 28 -57 55 -101 193
-457 177 -457 -3 0 0 -11 5 -24 10 -26 39 -160 47 -216 6 -43 13 -47 83 -56
30 -4 64 -8 75 -11 42 -9 304 -10 380 -1 78 9 265 45 272 52 2 2 -29 23 -69
46 -112 67 -349 229 -378 260 -3 3 -34 29 -70 59 -92 76 -315 304 -380 389
-30 39 -59 71 -65 71 -5 0 -31 -11 -57 -25z"/>
<path d="M2460 3529 c-47 -16 -125 -41 -175 -55 -49 -15 -94 -29 -98 -33 -12
-11 135 -153 238 -230 132 -99 327 -212 342 -198 23 24 -177 534 -213 543 -5
1 -47 -11 -94 -27z"/>
<path d="M4836 1980 c-2 -3 -4 -177 -4 -387 l0 -383 48 0 49 0 0 118 c0 64 0
126 1 137 0 15 38 -19 140 -125 l140 -145 32 33 33 32 -129 129 -128 128 101
89 c55 49 101 94 101 100 0 6 -11 21 -25 34 l-25 24 -43 -40 c-23 -22 -67 -63
-96 -90 -30 -27 -65 -59 -78 -71 -13 -12 -23 -19 -24 -15 0 4 -1 104 -2 222
l-2 214 -43 1 c-24 1 -45 -2 -46 -5z"/>
<path d="M1348 1963 c-42 -49 -15 -113 47 -113 36 0 50 12 60 52 14 55 -71
102 -107 61z"/>
<path d="M824 1941 c-9 -10 -4 -729 6 -733 5 -1 104 -2 218 0 l209 3 -1 42 -2
42 -162 1 c-89 0 -165 4 -168 7 -3 3 -6 148 -6 321 1 236 -2 316 -11 317 -55
3 -79 3 -83 0z"/>
<path d="M3069 1943 l-26 -4 0 -364 0 -363 31 -5 c17 -2 84 -5 148 -5 169 -1
255 28 309 107 20 28 24 47 24 106 0 62 -3 76 -27 107 -15 20 -45 44 -67 55
l-40 20 36 24 c59 39 77 71 78 137 0 79 -28 122 -103 159 -54 26 -65 28 -197
29 -77 1 -152 -1 -166 -3z m293 -91 c99 -39 101 -160 2 -203 -38 -17 -143 -27
-211 -20 -8 1 -11 35 -11 114 1 61 2 115 5 119 7 13 174 6 215 -10z m23 -328
c105 -49 97 -188 -13 -225 -35 -12 -194 -20 -219 -12 -8 3 -11 44 -10 135 l1
130 102 -5 c68 -3 114 -11 139 -23z"/>
<path d="M5970 1893 c0 -7 -1 -14 -1 -15 -1 -2 -7 -34 -13 -73 l-11 -70 -45 0
-45 -1 -3 -42 -3 -42 48 0 48 0 1 -159 c1 -147 3 -163 25 -207 41 -82 131
-109 232 -70 44 16 46 19 36 44 -5 15 -12 32 -14 39 -3 9 -11 9 -32 -2 -37
-20 -98 -19 -117 1 -31 30 -34 50 -35 202 l-2 152 76 0 75 0 0 39 c0 46 -5 48
-87 46 l-63 -2 0 87 0 87 -35 0 c-22 0 -35 -5 -35 -14z"/>
<path d="M2305 1760 c-72 -16 -140 -75 -171 -148 -22 -52 -29 -159 -14 -220
31 -131 119 -197 262 -195 48 1 97 8 124 19 45 17 45 18 39 53 -4 20 -8 37 -9
38 -1 1 -26 -4 -56 -12 -103 -27 -181 -15 -226 36 -24 27 -51 95 -42 105 4 3
90 6 192 6 l186 -1 0 67 c-1 77 -16 127 -55 178 -45 59 -148 92 -230 74z m132
-98 c28 -15 55 -60 63 -104 l7 -37 -66 -3 c-36 -2 -103 -2 -148 0 -93 4 -97 8
-68 79 33 80 129 109 212 65z"/>
<path d="M3848 1755 c-190 -48 -256 -328 -116 -486 80 -90 245 -95 322 -10
l19 21 18 -29 c12 -19 31 -33 56 -40 43 -12 50 -8 59 37 5 25 3 32 -9 32 -37
0 -42 26 -43 245 0 116 -3 215 -6 221 -5 8 -45 11 -80 5 -3 -1 -4 -10 -1 -20
4 -17 1 -17 -46 6 -60 30 -108 35 -173 18z m172 -94 l35 -18 3 -148 c3 -163 2
-164 -62 -197 -50 -25 -120 -21 -165 11 -85 61 -102 219 -34 310 50 65 143 83
223 42z"/>
<path d="M4463 1760 c-94 -20 -150 -85 -139 -163 10 -74 31 -92 198 -166 77
-34 99 -63 80 -106 -7 -14 -24 -30 -39 -36 -45 -18 -133 -11 -184 15 l-47 23
-16 -34 c-21 -45 -21 -48 12 -62 156 -73 354 -25 376 91 10 55 -9 115 -47 144
-23 19 -110 60 -176 85 -89 33 -88 105 0 129 43 12 106 6 156 -15 32 -13 32
-13 44 22 6 19 7 38 3 43 -29 26 -156 43 -221 30z"/>
<path d="M5512 1759 c-12 -5 -22 -6 -22 -4 0 9 -85 -48 -103 -69 -75 -85 -91
-243 -37 -359 40 -84 110 -127 214 -129 66 -2 105 3 161 22 33 11 36 15 31 39
-4 14 -7 32 -8 39 -2 15 -2 15 -62 -3 -134 -41 -234 2 -266 115 -8 29 -7 30
23 31 18 0 104 1 192 2 l160 2 1 65 c1 109 -43 192 -123 231 -47 23 -124 31
-161 18z m134 -97 c30 -16 52 -54 60 -101 l6 -40 -68 -3 c-38 -2 -106 -2 -152
0 l-82 3 6 27 c17 68 57 118 103 128 14 3 31 7 36 8 14 4 67 -9 91 -22z"/>
<path d="M1349 1746 c-1 -6 -2 -128 -3 -271 -1 -253 -1 -260 19 -265 11 -3 32
-4 47 -2 l28 4 0 269 c0 249 -1 269 -17 270 -10 1 -30 2 -45 3 -16 2 -29 -2
-29 -8z"/>
<path d="M1573 1745 c-18 -8 -33 -18 -33 -23 0 -11 206 -501 213 -508 10 -10
89 -9 97 1 8 9 220 503 220 511 0 5 -70 34 -81 34 -5 0 -9 -5 -9 -12 0 -15
-172 -430 -176 -425 -2 2 -43 100 -92 217 -48 118 -92 215 -98 216 -5 2 -24
-3 -41 -11z"/>
</g>
</svg>
